<svg xmlns="http://www.w3.org/2000/svg" xmlns:xlink="http://www.w3.org/1999/xlink" version="1.1" id="Layer_1" x="0px" y="0px" style="enable-background:new 0 0 398.3 144;" xml:space="preserve" viewBox="36 36 336 72">
<style type="text/css">
	.st0{fill:none;}
	.st1{fill:#001F5A;}
	.st2{fill:#FFFFFF;}
</style>
<rect class="st0" width="398.3" height="144"/>
<path class="st1" d="M131,91.4h-11.8V55.5h12c6.6,0,12.4,2.2,12.4,9c0,4.6-2.5,7.2-6.4,8.3v0.1c4.3,0.6,7.9,3.5,7.9,8.6  C145.1,88.8,139.2,91.4,131,91.4 M130.4,61.3H126v9h4.2c4.1,0,5.9-1.5,5.9-4.6C136.1,62.6,134.2,61.3,130.4,61.3 M130.3,75.7H126  v9.9h4c4.4,0,6.7-1.3,6.7-4.8C136.7,77.4,134.7,75.7,130.3,75.7 M166.4,65.2c-0.6-0.3-1.6-0.7-3.6-0.7c-3.3,0-5.5,2.3-6.6,4.2v-3.6  h-7.2v26.3h7.2V74.8c0.6-1.2,2.5-4,5.7-4c1.5,0,2.3,0.3,2.8,0.6L166.4,65.2z M179.2,92c-9.2,0-13.2-7-13.2-13.7s3.9-13.9,13.1-13.9  s13.3,6.9,13.3,13.7C192.5,84.8,188.4,92,179.2,92 M179.1,69.8c-4,0-5.4,3.4-5.4,8.3s1.6,8.5,5.7,8.5c4.1,0,5.6-3.3,5.6-8.3  C184.9,73.4,183.2,69.8,179.1,69.8 M210.1,91.4c-0.2-0.6-0.4-2-0.4-2.8c-1.2,1.4-3.7,3.4-7.4,3.4c-4.5,0-7.9-2.7-7.9-7.4  c0-6.9,7.1-9.3,14-9.3h0.9v-1.5c0-2.3-0.9-3.7-4.3-3.7c-3.4,0-5.7,1.8-6.7,2.5l-3.1-4.4c1.6-1.4,5-3.8,10.6-3.8  c7.2,0,10.6,2.8,10.6,9.7v9.4c0,3.6,0.4,6.1,0.7,7.8L210.1,91.4L210.1,91.4L210.1,91.4z M208.6,79.7h-0.9c-4.2,0-7.1,1.2-7.1,4.3  c0,1.9,1.6,2.7,3.2,2.7c2.6,0,4.1-1.5,4.9-2.3L208.6,79.7L208.6,79.7z M231.9,64.5c3.2,0,5.1,1.1,6.1,1.8V52.7h7.2v31.2  c0,3.4,0.4,6,0.8,7.5h-7.1c-0.2-0.6-0.5-2-0.5-2.9c-1.6,1.9-3.9,3.6-7.4,3.6c-6.6,0-10.8-5-10.8-13.8  C220.2,69.9,225.2,64.5,231.9,64.5 M233.1,86.3c2.6,0,4.3-1.8,4.9-2.7V71.8c-0.9-0.8-2.3-1.7-4.6-1.7c-3.7,0-5.7,3.1-5.7,8.3  C227.8,83.4,229.5,86.3,233.1,86.3 M268,65.2c-0.6-0.3-1.6-0.7-3.6-0.7c-3.3,0-5.5,2.3-6.6,4.2v-3.6h-7.2v26.3h7.2V74.8  c0.6-1.2,2.5-4,5.7-4c1.5,0,2.3,0.3,2.8,0.6L268,65.2z M274.4,61.7c2.4,0,4.1-1.9,4.1-4c0-2.1-1.8-3.9-4.1-3.9s-4.1,1.8-4.1,3.9  C270.3,59.9,272,61.7,274.4,61.7 M270.8,91.4h7.2V65.1h-7.2V91.4z M293.8,64.5c3.2,0,5.1,1.1,6.1,1.8V52.7h7.2v31.2  c0,3.4,0.4,6,0.8,7.5h-7.1c-0.2-0.6-0.5-2-0.5-2.9c-1.6,1.9-3.9,3.6-7.4,3.6c-6.6,0-10.8-5-10.8-13.8C282,69.9,287,64.5,293.8,64.5   M294.9,86.3c2.6,0,4.3-1.8,4.9-2.7V71.8c-0.9-0.8-2.3-1.7-4.6-1.7c-3.7,0-5.7,3.1-5.7,8.3C289.6,83.4,291.3,86.3,294.9,86.3   M336.6,64.5v5.3h-3.5c0.7,1.2,1,2.7,1,4.2c0,5.6-4,9.5-11.3,9.5c-1.1,0-2.2-0.1-3.1-0.3c-0.4,0.3-1,0.8-1,1.6  c0,1.4,1.5,1.7,5.3,1.9c5.4,0.3,12.4,0.3,12.4,8.1c0,5.6-5.8,9.5-14.4,9.5c-7.2,0-11.6-2.3-11.6-7c0-2.9,1.8-5,4.4-6.4  c-1.5-0.9-2.3-2.1-2.3-4c0-2.5,1.4-4,3-5c-3-1.7-4.7-4.4-4.7-7.9c0-5.7,4.4-9.5,11.7-9.5C324.1,64.5,336.6,64.5,336.6,64.5   M316.5,95.9c0,2.1,1.5,3.6,5.1,3.6c4.4,0,6.8-1.7,6.8-3.9c0-2.8-2.5-2.7-6.3-3c-1.2-0.1-2.4-0.2-3.6-0.4  C317.2,93.2,316.5,94.4,316.5,95.9 M327.2,74c0-3.1-1.8-4.9-4.8-4.9c-3,0-4.8,1.8-4.8,4.9c0,3,1.8,4.9,4.8,4.9S327.2,77,327.2,74   M352.3,86.7c3.6,0,5.6-1.2,6.9-1.8l2.3,4.6c-1.7,1-4.4,2.5-9.8,2.5c-8.8,0-13.8-5.6-13.8-13.9c0-8.3,5.7-13.7,13-13.7  c8.2,0,12.2,5.7,11.3,15.4h-16.7C345.8,84,347.9,86.7,352.3,86.7 M355.3,75.1c-0.1-3-1.2-5.4-4.5-5.4c-3,0-4.7,1.9-5.2,5.4H355.3  L355.3,75.1z M368.3,71.9c-2,0-3.7-1.6-3.7-3.7s1.6-3.7,3.7-3.7c2,0,3.7,1.6,3.7,3.7S370.3,71.9,368.3,71.9 M368.3,65.1  c-1.8,0-3.1,1.3-3.1,3.1c0,1.8,1.3,3.1,3.1,3.1c1.8,0,3.1-1.3,3.1-3.1C371.4,66.4,370.1,65.1,368.3,65.1 M369.3,70.4l-1-1.5  c-0.2-0.3-0.3-0.4-0.7-0.4v2H367V66h1.5c0.9,0,1.4,0.6,1.4,1.2c0,0.7-0.4,1-1.1,1.1c0.2,0.1,0.3,0.3,0.5,0.6l1,1.4L369.3,70.4  L369.3,70.4L369.3,70.4z M368.3,66.6h-0.6v1.3h0.4c0.5,0,1-0.1,1-0.7C369.1,66.9,368.9,66.6,368.3,66.6"/>
<path class="st1" d="M36,36v72h64.9V36H36z M98.1,38.7V72H38.7V44.5l0.1,0c0.1,0,12.2-0.3,20.2,7.4c3.1,3,5.3,6.9,6.4,11.6  c-3.2-3.6-9.1-6.8-19.1-6.8v2.7c19.5,0,20.1,12.4,20.1,12.5h4.2c0-8.6,3.3-14.6,9.8-18c4.9-2.5,9.8-2.6,10.4-2.6v-4.2  c-0.7,0-6.5,0.1-12.3,3.1c-3.4,1.8-7.2,4.8-9.6,9.8c-1.4-4.4-3.7-8.2-6.9-11.3c-9.1-8.7-21.9-8.6-23.1-8.6v-1.6  C38.7,38.7,98.1,38.7,98.1,38.7z"/>
<path class="st2" d="M98.1,103.7c-1.2,0-14.1,0.2-23.1-8.6c-3.2-3.1-5.5-6.8-6.9-11.3c-2.4,5.1-6.2,8.1-9.6,9.8  c-5.8,3-11.6,3.1-12.3,3.1v-4.2c0.5,0,5.5-0.1,10.4-2.6c6.5-3.4,9.8-9.4,9.8-18h4.2c0,0.1,0.5,12.5,20.1,12.5v2.7  c-10.1,0-15.9-3.2-19.1-6.8c1.1,4.7,3.3,8.6,6.4,11.6c8,7.8,20.1,7.4,20.2,7.4l0.1,0C98.1,99.6,98.1,103.7,98.1,103.7z"/>
</svg>