<?xml version="1.0" encoding="UTF-8"?> <svg xmlns="http://www.w3.org/2000/svg" viewBox="0 0 316 59" fill="none"><g clip-path="url(#clip0_2017_1555)"><path d="M68.0883 27.1809C68.0883 19.3378 74.0961 13.5596 81.7044 13.5596C86.6529 13.5596 90.0627 15.4703 92.3823 18.7138L89.1658 20.9789C87.3952 18.5982 85.1219 17.3501 81.5884 17.3501C76.292 17.3501 72.4414 21.5644 72.4414 27.1809C72.4414 32.7974 76.3693 37.0116 81.743 37.0116C85.1993 37.0116 87.7508 35.725 89.7457 33.1441L93.0009 35.3706C90.256 38.9994 86.7611 40.7945 81.5807 40.7945C73.9646 40.7945 68.0806 35.0162 68.0806 27.1732" fill="#262A80"></path><path d="M93.9902 27.1809C93.9902 19.3378 100.114 13.5596 107.769 13.5596C115.423 13.5596 121.547 19.3378 121.547 27.1809C121.547 35.0239 115.423 40.8022 107.769 40.8022C100.114 40.8022 93.9902 35.0239 93.9902 27.1809ZM117.186 27.1809C117.186 21.5644 113.305 17.3501 107.769 17.3501C102.233 17.3501 98.3511 21.5644 98.3511 27.1809C98.3511 32.7974 102.24 37.0116 107.769 37.0116C113.297 37.0116 117.186 32.7974 117.186 27.1809Z" fill="#262A80"></path><path d="M129.001 23.0053V40.448H125.073V13.5212H125.39L142.501 31.3568V13.9142H146.421V40.8409H146.112L129.001 23.0053Z" fill="#262A80"></path><path d="M157.571 17.6199H149.638V13.9141H169.695V17.6199H161.769V40.4479H157.571V17.6199Z" fill="#262A80"></path><path d="M173.267 13.9141H177.466V26.0638V40.4479H173.267V26.0638V13.9141Z" fill="#262A80"></path><path d="M187.71 23.0053V40.448H183.782V13.5212H184.099L201.21 31.3568V13.9142H205.13V40.8409H204.821L187.71 23.0053Z" fill="#262A80"></path><path d="M210.311 13.9141H227.306V17.6199H214.51V28.6217H225.852V32.2504H214.51V36.7421H227.855V40.4479H210.311V13.9141Z" fill="#262A80"></path><path d="M236.097 23.0053V40.448H232.169V13.5212H232.486L249.597 31.3568V13.9142H253.525V40.8409H253.208L236.097 23.0053Z" fill="#262A80"></path><path d="M264.273 17.6199H256.348V13.9141H276.405V17.6199H268.471V40.4479H264.273V17.6199Z" fill="#262A80"></path><path d="M277.494 40.448H273.257L284.956 13.3672H285.188L296.925 40.448H292.487L290.956 36.7422H279.025L277.494 40.448ZM285.033 22.5354L280.603 33.0364H289.394L285.033 22.5354Z" fill="#262A80"></path><path d="M299.871 13.9141H304.07V36.7421H315.838V40.4479H299.871V13.9141Z" fill="#262A80"></path><path d="M37.0906 0H1.22949L17.6678 13.4364H37.0906V0Z" fill="#262A80"></path><path d="M37.0905 13.4365V29.3075L17.6677 13.4365H0L55.7556 59.0001V13.4365H37.0905Z" fill="#80A641"></path><path d="M37.0903 13.4365H17.6675L37.0903 29.3075V13.4365Z" fill="#803F80"></path><path d="M158.275 56.4036C158.692 57.2126 159.411 57.6363 160.355 57.6363C161.298 57.6363 161.978 57.1818 161.978 56.4421C161.978 55.587 161.329 55.2865 160.525 54.9244L159.891 54.6393C158.538 54.0461 157.625 53.3527 157.625 51.9274C157.625 50.5021 158.669 49.5544 160.177 49.5544C161.352 49.5544 162.218 50.0244 162.798 50.9875L161.708 51.6963C161.36 51.103 160.896 50.8103 160.208 50.8103C159.465 50.8103 159.032 51.2417 159.032 51.8658C159.032 52.59 159.481 52.875 160.478 53.3142L161.112 53.5992C162.504 54.2156 163.424 54.8473 163.424 56.3882C163.424 58.0678 162.125 58.9152 160.385 58.9152C158.831 58.9152 157.702 58.1602 157.076 56.9969L158.29 56.3959L158.275 56.4036Z" fill="#262A80"></path><path d="M166.238 50.9565H163.517V49.6853H170.414V50.9565H167.684V58.8073H166.238V50.9565Z" fill="#262A80"></path><path d="M170.344 54.2465C170.344 51.55 172.447 49.5623 175.084 49.5623C177.721 49.5623 179.824 51.55 179.824 54.2465C179.824 56.943 177.721 58.9308 175.084 58.9308C172.447 58.9308 170.344 56.943 170.344 54.2465ZM178.324 54.2465C178.324 52.3127 176.986 50.8643 175.084 50.8643C173.182 50.8643 171.844 52.3127 171.844 54.2465C171.844 56.1803 173.182 57.6287 175.084 57.6287C176.986 57.6287 178.324 56.1803 178.324 54.2465Z" fill="#262A80"></path><path d="M180.798 54.2465C180.798 51.55 182.862 49.5623 185.483 49.5623C187.184 49.5623 188.36 50.2171 189.156 51.3343L188.05 52.1124C187.44 51.2957 186.659 50.8643 185.445 50.8643C183.62 50.8643 182.298 52.3127 182.298 54.2465C182.298 56.1803 183.651 57.6287 185.499 57.6287C186.69 57.6287 187.563 57.1896 188.252 56.2959L189.373 57.0586C188.429 58.3067 187.223 58.9231 185.445 58.9231C182.824 58.9231 180.806 56.9353 180.806 54.2388" fill="#262A80"></path><path d="M195.721 49.6853H197.352L194.097 53.7763L197.839 58.8073H196.084L193.154 54.8626L192.141 56.0953V58.8073H190.703V49.6853H192.141V54.2078L195.721 49.6853Z" fill="#262A80"></path><path d="M203.932 50.9565H201.203V49.6853H208.1V50.9565H205.378V58.8073H203.932V50.9565Z" fill="#262A80"></path><path d="M215.515 58.8074H213.798L212.228 56.5962C212.027 56.6194 211.795 56.6348 211.571 56.6348H210.667V58.8074H209.221V49.6777H211.571C214.092 49.6777 215.484 51.0568 215.484 53.1678C215.484 54.5777 214.85 55.664 213.651 56.211L215.515 58.7997V58.8074ZM211.517 55.3944C213.288 55.3944 213.999 54.5623 213.999 53.1678C213.999 51.7733 213.272 50.9567 211.517 50.9567H210.667V55.4021H211.517V55.3944Z" fill="#262A80"></path><path d="M217.749 58.8075H216.288L220.309 49.4929H220.386L224.422 58.8075H222.899L222.373 57.5286H218.267L217.742 58.8075H217.749ZM220.34 52.644L218.816 56.2573H221.84L220.34 52.644Z" fill="#262A80"></path><path d="M226.927 52.8133V58.8073H225.582V49.5466H225.69L231.574 55.6793V49.6853H232.919V58.946H232.811L226.927 52.8133Z" fill="#262A80"></path><path d="M235.424 56.4036C235.842 57.2126 236.561 57.6363 237.504 57.6363C238.448 57.6363 239.128 57.1818 239.128 56.4421C239.128 55.587 238.479 55.2865 237.667 54.9244L237.033 54.6393C235.68 54.0461 234.767 53.3527 234.767 51.9274C234.767 50.5021 235.803 49.5544 237.319 49.5544C238.494 49.5544 239.36 50.0244 239.94 50.9875L238.85 51.6963C238.494 51.103 238.038 50.8103 237.35 50.8103C236.607 50.8103 236.174 51.2417 236.174 51.8658C236.174 52.59 236.615 52.875 237.62 53.3142L238.254 53.5992C239.646 54.2156 240.566 54.8473 240.566 56.3882C240.566 58.0678 239.275 58.9152 237.528 58.9152C235.973 58.9152 234.845 58.1602 234.218 56.9969L235.432 56.3959L235.424 56.4036Z" fill="#262A80"></path><path d="M242.082 49.6853H247.804V50.9565H243.528V54.7394H247.425V56.0183H243.528V58.8073H242.082V49.6853Z" fill="#262A80"></path><path d="M249.103 49.6853H254.948V50.9565H250.548V54.7394H254.453V55.9875H250.548V57.536H255.134V58.8073H249.103V49.6853Z" fill="#262A80"></path><path d="M263.121 58.8074H261.404L259.835 56.5962C259.634 56.6194 259.402 56.6348 259.17 56.6348H258.265V58.8074H256.819V49.6777H259.17C261.691 49.6777 263.082 51.0568 263.082 53.1678C263.082 54.5777 262.448 55.664 261.25 56.211L263.113 58.7997L263.121 58.8074ZM259.123 55.3944C260.894 55.3944 261.605 54.5623 261.605 53.1678C261.605 51.7733 260.879 50.9567 259.123 50.9567H258.273V55.4021H259.123V55.3944Z" fill="#262A80"></path><path d="M272.84 55.8413C273.056 55.302 273.164 54.6471 273.164 53.869H274.487C274.487 55.1171 274.2 56.1649 273.729 56.9661L275.175 58.8075H273.443L272.832 58.0293C272.128 58.6226 271.239 58.9308 270.28 58.9308C268.185 58.9308 266.956 57.8059 266.956 56.2342C266.956 54.8397 267.86 54.1309 269.182 53.3759C268.641 52.6902 268.479 52.1278 268.479 51.55C268.479 50.4791 269.291 49.5623 270.636 49.5623C271.981 49.5623 272.731 50.3712 272.731 51.496C272.731 52.3281 272.167 52.9599 271.069 53.607L272.824 55.849L272.84 55.8413ZM269.886 54.2542C268.858 54.832 268.471 55.379 268.471 56.2265C268.471 57.074 269.121 57.6749 270.304 57.6749C270.976 57.6749 271.587 57.4592 272.059 57.0278L269.886 54.2465V54.2542ZM271.386 51.4883C271.386 51.1108 271.139 50.7641 270.659 50.7641C270.133 50.7641 269.894 51.1262 269.894 51.5423C269.894 52.0122 270.079 52.2973 270.35 52.644L270.404 52.7133C271.069 52.3281 271.394 52.0045 271.394 51.4883" fill="#262A80"></path><path d="M280.904 50.9565H278.183V49.6853H285.08V50.9565H282.35V58.8073H280.904V50.9565Z" fill="#262A80"></path><path d="M292.494 58.8074H290.778L289.208 56.5962C289.007 56.6194 288.775 56.6348 288.543 56.6348H287.639V58.8074H286.193V49.6777H288.543C291.064 49.6777 292.456 51.0568 292.456 53.1678C292.456 54.5777 291.822 55.664 290.623 56.211L292.487 58.7997L292.494 58.8074ZM288.497 55.3944C290.268 55.3944 290.979 54.5623 290.979 53.1678C290.979 51.7733 290.252 50.9567 288.497 50.9567H287.646V55.4021H288.497V55.3944Z" fill="#262A80"></path><path d="M294.057 55.587V49.6777H295.503V55.5022C295.503 56.9661 296.229 57.6209 297.567 57.6209C298.905 57.6209 299.616 56.9661 299.616 55.5022V49.6777H301.062V55.587C301.062 57.8135 299.554 58.9307 297.567 58.9307C295.58 58.9307 294.057 57.8135 294.057 55.587Z" fill="#262A80"></path><path d="M303.528 56.4036C303.946 57.2126 304.665 57.6363 305.608 57.6363C306.552 57.6363 307.232 57.1818 307.232 56.4421C307.232 55.587 306.583 55.2865 305.771 54.9244L305.137 54.6393C303.784 54.0461 302.871 53.3527 302.871 51.9274C302.871 50.5021 303.907 49.5544 305.423 49.5544C306.598 49.5544 307.464 50.0244 308.044 50.9875L306.954 51.6963C306.606 51.103 306.142 50.8103 305.454 50.8103C304.711 50.8103 304.278 51.2417 304.278 51.8658C304.278 52.59 304.727 52.875 305.724 53.3142L306.358 53.5992C307.75 54.2156 308.67 54.8473 308.67 56.3882C308.67 58.0678 307.371 58.9152 305.632 58.9152C304.077 58.9152 302.941 58.1602 302.322 56.9969L303.536 56.3959L303.528 56.4036Z" fill="#262A80"></path><path d="M311.832 50.9565H309.103V49.6853H316V50.9565H313.271V58.8073H311.832V50.9565Z" fill="#262A80"></path></g><defs><clipPath id="clip0_2017_1555"><rect width="316" height="59" fill="white"></rect></clipPath></defs></svg> 