<?xml version="1.0" encoding="utf-8"?>
<!-- Generator: Adobe Illustrator 26.1.0, SVG Export Plug-In . SVG Version: 6.00 Build 0)  -->
<svg version="1.1" xmlns="http://www.w3.org/2000/svg" xmlns:xlink="http://www.w3.org/1999/xlink" x="0px" y="0px"
	 viewBox="0 0 990.9 160.1" style="enable-background:new 0 0 990.9 160.1;" xml:space="preserve">
<style type="text/css">
	.st0{display:none;}
	.st1{display:inline;fill:#000003;}
	.st2{fill:#EE9827;}
	.st3{fill:#EE9826;}
	.st4{fill:#FFFFFF;}
	.st5{fill:none;stroke:#FFFFFF;stroke-width:4;stroke-miterlimit:10;}
</style>
<g id="ackground" class="st0">
	<rect class="st1" width="990.9" height="166"/>
</g>
<g id="Stripes">
	<g>
		<g>
			<path class="st2" d="M78.6,44.3c-14.3,0-28.5,0-42.8,0c-9.3,0-10.2-1-10.4-10.5c-0.1-3.3-0.1-6.6,0-9.9
				c0.2-9.1,1.1-10.1,9.9-10.1c29.1-0.1,58.2-0.1,87.3,0c8.1,0,8.7,0.7,8.9,9.1c0.1,4.4,0.1,8.8,0,13.2c-0.2,6.8-1.4,8.2-8.3,8.2
				C108.2,44.4,93.4,44.3,78.6,44.3z"/>
			<path class="st3" d="M78.3,153.4c-14.6,0-29.1,0.1-43.7,0c-7.8-0.1-9.1-1.3-9.2-9.2c-0.2-24.6-1.3-20.3,19-20.5
				c25.8-0.2,51.6-0.1,77.5,0c8.9,0,9.4,0.6,9.5,9.3c0,3.6,0,7.2,0,10.7c-0.1,8.7-1,9.6-9.4,9.7C107.4,153.5,92.8,153.4,78.3,153.4z
				"/>
			<path class="st3" d="M78.5,98.6c-10.7,0-21.4,0.3-32.1-0.1c-9.6-0.3-9.6-0.6-9.7-10c0-3.8-0.1-7.7,0-11.5
				c0.1-7.4,1.1-8.4,8.7-8.5c11.5-0.1,23-0.1,34.6,0c11,0,21.9-0.1,32.9,0.4c7,0.3,7.8,1.6,8.1,8.6c0.1,4.1,0.1,8.2,0,12.4
				c-0.2,7.2-1.7,8.8-8.8,8.9c-11.2,0.2-22.5,0-33.7,0C78.5,98.6,78.5,98.6,78.5,98.6z"/>
		</g>
	</g>
</g>
<g id="Transtar">
	<g>
		<path class="st4" d="M563.9,31.7c-0.5-1.6-1.9-2.6-3.6-2.6c-5.4-0.1-10.8-0.1-16.3,0c-1.8,0-3.4,1.3-3.8,3.1
			c-0.1,0.9-0.2,1.8-0.1,2.7v50l-0.1,1.9l-0.3,0.1c-0.4-0.6-0.8-1.2-1.2-1.8L517,50.5c-3.7-6-7.4-11.9-11.2-17.9
			c-1.2-1.8-2.6-3.5-4.9-3.5c-5.4-0.1-10.8-0.1-16.2,0c-1.9,0-3.5,1.3-3.8,3.2c-0.1,0.8-0.2,1.7-0.1,2.5v90.7c0,1,0,2,0.2,3
			c0.4,1.6,1.8,2.8,3.5,2.8c5.8,0.1,11.5,0.1,17.3,0c2.2,0,3.3-1.3,3.4-3.5c0.1-0.9,0.1-1.7,0.1-2.6V73.5c0.5,0.3,1,0.8,1.3,1.3
			l21.6,34.9c3.7,6,7.5,12.1,11.3,18.1c1.1,1.7,2.3,3.4,4.6,3.5c5.5,0.1,11.1,0.1,16.7,0c1.6,0,2.9-1.1,3.2-2.6
			c0.1-0.9,0.2-1.9,0.2-2.8V34.7C564.2,33.7,564.1,32.7,563.9,31.7z M358,125.6c-3-4.4-6.1-8.8-9.1-13.3l-12-17.6
			c2-1.1,3.9-1.9,5.6-3c11.8-7.3,18-21.2,15.4-34.9c-1.6-9.3-5.9-16.9-14-22.1c-5.7-3.7-12.1-5.1-18.7-5.2
			c-15.3-0.3-30.6-0.2-45.8-0.3h-0.7c-2.9,0.3-3.8,1.2-4,4.1v92.4c0,0.7,0,1.5,0.1,2.2c0.3,2.5,1.2,3.5,3.7,3.5
			c5.4,0.1,10.9,0.1,16.3,0c2.1,0,4-1.6,4.2-3.7c0.1-0.8,0-1.5,0-2.3V51.2c0.2-0.1,0.5-0.2,0.7-0.2c6.9,0,13.9-0.1,20.8,0
			c4.2-0.1,8.1,1.7,10.8,5c5.9,7.2,2.4,17.3-7.1,20c-2.7,0.8-5.7,0.6-8.5,0.8c-2.3,0.2-4,2.1-4.1,4.4c0,4.7-0.2,9.5,0.1,14.2
			c0.2,2.3,0.8,4.6,1.9,6.6c1.8,3.1,3.9,6,5.9,9c3.6,5.3,7.2,10.7,10.7,16c1.5,2.1,3.1,4.2,5.9,4.3c6.8,0.2,13.6,0.2,20.4,0.1
			c1.5,0,2.7-1.1,2.8-2.6v-0.3C359.1,127.5,358.7,126.5,358,125.6z M466.7,126.4c-11.3-30.5-22.6-61-33.8-91.5
			c-0.4-1.1-0.9-2.1-1.5-3.1c-1-1.7-2.9-2.7-4.9-2.7h-15.7c-2.3,0-4.4,1.3-5.4,3.4c-0.4,0.9-0.8,1.8-1.1,2.7
			c-9.2,24.8-18.5,49.7-27.7,74.5c-2.2,5.9-4.4,11.8-6.5,17.7c-0.9,2.4-0.1,3.9,2.2,4c6.3,0.1,12.6,0,18.9,0c1.6,0,3.1-1,3.7-2.5
			c0.4-0.9,0.8-1.9,1.2-2.9c5.4-16,10.7-32,16-48c1.7-5.7,3.6-11.4,5.6-17.4c0.4,1,0.6,1.6,0.9,2.2c3.5,10.2,7,20.4,10.5,30.6
			c3.8,11.1,7.6,22.1,11.4,33.2c1.4,4.1,2.4,4.8,6.8,4.8h16c0.7,0,1.3,0,2-0.1c0.8-0.3,1.5-0.9,1.9-1.7
			C467.6,128.4,467.1,127.4,466.7,126.4z M254.6,29.1H182c-2.4,0-4.3,1.9-4.4,4.3v12.5c0,4,1.1,5,5.1,5h23.4v75.2
			c0,4.2,1,5.2,5.3,5.2h14.8c2.2,0,4.1-1.7,4.4-3.9c0.1-0.8,0-1.6,0-2.4V53.3l0.1-2.4h23.8c2.5,0,4.5-2,4.5-4.5v-13
			C259,31,257,29.1,254.6,29.1z"/>
		<g>
			<path class="st5" d="M665.5,97.2c1.3,13.4-2.8,24.5-14.6,32.1c-5.4,3.3-11.4,5.5-17.7,6.3c-10.3,1.5-20.6,1.3-30.5-2.4
				c-8.1-3.1-15.2-7.7-20.3-14.9c-3.5-5.1-5.4-11.3-5.2-17.6c0-4.5,2.3-6.7,6.8-6.8h8.2c2.7,0,5.4-0.1,7.9,0c3.7,0.2,6.8,3,7.3,6.7
				c0.4,3.4,2.8,6.3,6,7.5c5.6,2.1,11.6,2.3,17.3,0.5c0.8-0.3,1.6-0.7,2.3-1.2c4.1-3,3.7-8.3-0.9-10.2c-3.1-1.2-6.4-2.2-9.7-3
				c-9.2-2.2-18.4-4.7-26.9-9.1c-17.2-8.8-22.6-30.4-11.3-45.4c5.5-7.4,13.1-11.6,21.9-13.7c15.4-3.7,30.1-2.1,43.7,6.4
				c8.6,5.5,13.2,13.4,13.3,23.8c0,3.9-3.1,7-6.9,7H641c-3,0-5.2-1.3-6.1-4c-2.7-8.3-10.7-9.7-17.5-8.8c-2.3,0.3-4.4,1.1-6.4,2.3
				c-3,1.9-3,5.2-0.1,7.2c2.5,1.8,5.3,3.2,8.3,4.3c7.3,2.5,14.8,4.7,22.2,7.1c2.6,0.9,5,1.9,7.4,3C658.7,78.8,664.5,86.3,665.5,97.2
				z"/>
			<path class="st5" d="M959.5,132.1c-1.2,1.2-2.8,1.9-4.5,1.9c-6.6,0.1-13.1,0.1-19.7-0.1c-3.3-0.1-5.9-2-7.7-4.6
				c-6-8.9-12.1-17.7-17.9-26.8c-1.3-2.1-1.6-5-1.8-7.6c-0.3-4.5-0.2-9-0.1-13.6c0-3.9,3.1-7,7-7.1c2.2,0,4.4-0.1,6.5-0.4
				c6.3-1.2,9.8-6.2,8.7-12c-0.7-3.9-4-7.6-8.2-7.8c-7.1-0.4-14.2-0.1-21.5-0.1v71.7c0,0.9,0,1.8-0.1,2.7c-0.4,3.2-2.3,5.4-5.5,5.5
				c-6.1,0.2-12.3,0.2-18.5,0c-3.1-0.1-5-2.2-5.3-5.4c-0.1-1-0.1-2-0.1-3V35.1c0-6.8,1.7-8.6,8.5-8.6c14.8,0.1,29.5,0,44.2,0.3
				c8.4,0.2,16.4,2.2,23.3,7.7c7.7,6.2,11.7,14.3,12.6,24c1.4,15-4.2,26.6-16.5,35.2c-1.1,0.8-2.3,1.4-3.6,2.1l9.1,12.9
				c3.6,5.1,7.2,10.3,10.7,15.5C960.6,126.5,962,129.3,959.5,132.1z"/>
			<path class="st5" d="M758,33.5c0.1,4.3,0.1,8.7,0,13.1c-0.1,4.9-2.2,7-7.1,7h-21.2l-0.1,2.4v69.8c0.1,1.5-0.1,3-0.5,4.4
				c-0.7,2.1-2.6,3.6-4.8,3.6c-6.4,0.2-12.8,0.2-19.2,0c-2.9-0.2-4.8-2.4-5.1-5.5c-0.1-0.9-0.1-1.8-0.1-2.7v-72h-21.1
				c-4.1,0-7.4-3.3-7.4-7.4V33.8c0-7,4.1-6.2,14.5-6.2c20.5-0.1,37-0.1,57.9-0.1C753.8,27.5,757.9,26.8,758,33.5z"/>
			<path class="st5" d="M861.7,126.4c1.4,4.4-0.6,7.4-5.2,7.5c-5.8,0.1-11.7,0.1-17.6,0c-4.7,0-6.9-1.9-8.7-7
				c-4.9-14.4-9.9-28.8-14.8-43.2c-1.5-4.4-3-8.7-4.5-13.1c-0.2-0.5-0.4-0.9-0.8-1.8c-1.5,4.5-2.9,8.6-4.4,12.8
				c-5,15-10,29.9-15,44.9c-0.5,1.7-1.2,3.2-2.2,4.7c-1.3,1.7-3.3,2.7-5.4,2.7c-6.3,0.1-12.6,0.2-18.9,0c-4-0.1-5.8-3.4-4.3-7.5
				c2.6-7.3,5.3-14.5,8-21.7L794.2,34c1.7-4.6,6-7.6,10.9-7.6H817c4.7,0,8.8,2.9,10.5,7.3c2,5.4,4,10.9,6,16.3l27.6,74.7
				C861.3,125.2,861.5,125.8,861.7,126.4z"/>
		</g>
	</g>
</g>
</svg>
