<svg id="Layer_1" data-name="Layer 1" xmlns="http://www.w3.org/2000/svg" viewBox="0 0 212.04 278.83"><defs><style>.cls-1{fill:#ef9928;}.cls-2{fill:#ef9927;}</style></defs><g id="Stripes"><path class="cls-1" d="M106.32,61H20.91C2.35,61,.55,59,.15,40.06q-.3-9.87,0-19.75C.55,2.15,2.35.15,19.91.15Q107-.15,194.13.15c16.16,0,17.36,1.4,17.76,18.16q.3,13.17,0,26.34c-.4,13.57-2.8,16.37-16.57,16.37C165.39,61.22,135.85,61,106.32,61Z"/><path class="cls-2" d="M105.72,278.74c-29.14,0-58.07.2-87.21,0C3,278.54.35,276.15.15,260.38c-.4-49.09-2.59-40.51,37.92-40.91,51.49-.4,103-.2,154.66,0,17.76,0,18.76,1.2,19,18.56v21.35c-.2,17.36-2,19.16-18.76,19.36C163.79,278.94,134.66,278.74,105.72,278.74Z"/><path class="cls-2" d="M106.12,169.38c-21.35,0-42.71.6-64.06-.2-19.16-.6-19.16-1.2-19.36-20,0-7.58-.2-15.36,0-23,.2-14.76,2.2-16.76,17.36-17,22.95-.2,45.9-.2,69.05,0,22,0,43.71-.2,65.66.8,14,.6,15.56,3.19,16.16,17.16.2,8.18.2,16.37,0,24.75-.4,14.37-3.39,17.56-17.56,17.76-22.35.4-44.9,0-67.25,0Z"/></g></svg>