<svg width="138" height="36" viewBox="0 0 138 36" fill="none" xmlns="http://www.w3.org/2000/svg">
<path d="M40.7556 16.6693V0H27.2703V16.2573C27.2703 19.7035 24.7605 20.8273 20.3404 20.8273C15.9202 20.8273 13.4479 19.7035 13.4479 16.2573V0H0V16.6693C0 25.21 6.5179 27.7947 20.3778 27.7947C34.2377 27.7947 40.7556 25.21 40.7556 16.6693ZM79.5259 26.8582H91.7376V0H72.7832L67.2018 15.583H67.0894L61.508 0H42.5537V26.8582H54.7654V7.67914H54.8777L62.0325 26.8957H72.2588L79.4135 7.67914H79.5259V26.8582ZM121.593 18.2052C121.593 19.4039 120.768 20.3029 118.109 20.3029H106.609V16.07H118.109C120.768 16.1075 121.593 17.0439 121.593 18.2052ZM120.094 8.24103C120.094 9.28988 119.495 10.0016 116.76 10.0016H106.609V6.55536H116.76C119.495 6.5179 120.094 7.26709 120.094 8.24103ZM134.104 6.7052C134.104 2.43485 130.995 0 124.027 0H93.4233V26.8582H122.567C132.531 26.8582 135.902 23.412 135.902 18.1303C135.902 16.1449 134.479 12.886 130.096 11.9869V11.912C132.643 11.1254 134.104 9.06513 134.104 6.7052Z" fill="#003264"/>
<path d="M135.112 30.4541V35.6609H0V30.4541H135.112Z" fill="#009FDF"/>
<path d="M136.127 26.5958H135.79V25.8841H136.24C136.502 25.8841 136.727 25.959 136.727 26.2212C136.764 26.5958 136.427 26.5958 136.127 26.5958ZM135.79 27.757V26.8205H136.24L136.839 27.757H137.139L136.502 26.8205C136.802 26.7831 137.026 26.5958 137.026 26.2586C137.026 25.9215 136.802 25.6968 136.352 25.6968H135.566V27.757H135.79ZM134.667 26.7082C134.667 26.6707 134.667 26.6707 134.667 26.6332C134.667 25.8091 135.341 25.1349 136.165 25.1723C136.989 25.1723 137.663 25.8466 137.701 26.6707C137.701 27.4948 137.064 28.2065 136.202 28.2065C135.378 28.2065 134.704 27.5323 134.667 26.7082ZM138 26.7082V26.6707C137.963 25.6968 137.176 24.9101 136.202 24.9476C135.228 24.9476 134.404 25.7717 134.404 26.7456C134.404 27.7196 135.228 28.5437 136.202 28.5437C137.176 28.5437 138 27.6821 138 26.7082Z" fill="#009FDF"/>
</svg>
