<svg xmlns="http://www.w3.org/2000/svg" viewBox="0 0 500 60" focusable="true" aria-hidden="false" tabindex="0" role="img" aria-labelledby="logo logo-descr" fill="#fff"><title>Zions Bank</title><desc>ZFNB logo</desc><path d="M50.5 6.9L14.7 53.2h23.5c3.7 0 5-.5 11.1-8.2h1.1c-1.1 2.7-4 9.2-5.3 15-2.5-1.4-4.2-1.8-7.7-1.8H0l36.6-47.3H9.2c-1.9 0-2.8.3-5 6.8h-1V2.1C6.4 5.4 6.4 6 8.7 6h42.4l-.6.9zM54.6 58.2v-1.1c8.3-2 8.4-2.4 8.4-5V11.8c0-2.7-.1-2.7-8.3-4.9V5.7h25.6v1.1C71.9 9.2 72 9.3 72 11.7V52c0 2.9 0 2.9 8.4 5v1.1H54.6z"/><path d="M129.6 32.8c0 11.3-8.6 21.1-20 21.1-14 0-20.8-12.2-20.8-21.1 0-11.7 7.1-23.2 21-23 13.9.1 19.8 11.7 19.8 23zm8.8-.1c0-17.5-13.8-27.7-28.3-27.7C95.1 5 80 13.6 80 32.5c0 17.2 14.9 26.2 29.2 26.3 14.8 0 29.2-10.8 29.2-26.1zM195.9 12v46.2h-4.8l-38.7-37.6c-.6-.7-.8-.6-.8-.1v31.8c0 2.5 0 2.4 8.3 4.8v1.1h-21.6v-1.1c8.3-2.3 8.4-2.3 8.4-4.8V5.7h4.4l39.2 38.6c.5.5.7.1.7.1V11.9c0-2.4.1-2.4-8.3-5V5.8h21.6V7c-8.4 2.5-8.4 2.5-8.4 5zM221.7 59.6c-6 .1-9.6-.8-14.3-2.9l-.3-14h1c2.7 8.1 3.8 8.4 5.1 9.2.8.5 4.3 2.6 8 2.6 4.8 0 9.3-2.8 9.2-7.6C230.3 36 206 35.3 206 20.5c0-9.6 9-15.4 18.6-15.4 4.5 0 7.8.6 11.3 1.7l-.6 13.8h-1.1c-2.6-7.2-2.2-7.4-3.6-8.5-.6-.5-2.7-2.1-6.4-2-6.1.2-9.8 3.2-9.8 8.8 0 10 25.2 13.2 24.8 26.6-.2 11.3-11.4 14.1-17.5 14.1zM298.5 18.5c0 3.3-1.4 6.4-5.7 8.6 0 0-4.7 1.7-7.8 1.2-1.1-.1-1.3-.1-1.3-1.5V12.9c0-1.9 3.8-2.2 6.4-2.1 4.7.3 8.4 3.5 8.4 7.7zm11.6 25c0-6.9-5.5-12.5-12.7-13.8 5.8-.8 9.5-7 9.5-12 0-7.2-8.4-11.8-14-11.8h-26.5V7c8.3 2.6 8.3 2.6 8.3 5.1v40.1c0 2.1 0 2.1-8.3 5v1.1H293c8.8-.1 17.1-3.5 17.1-14.8zm-8.9.5c.1 5.9-3.4 7.5-6.2 8.5-3.5 1.3-7.8 1-9.3.7-1-.3-2.1-.2-2.1-2V34.6c0-2.6 6.8-1.7 8.7-1.1 5.6 1.8 8.8 4.5 8.9 10.5zM407.4 5.8v1.1c8.4 2.6 8.3 2.7 8.3 5v32.5s-.2.4-.7-.1L375.8 5.7h-4.4v46.5c0 2.1-.1 2.4-4.9 3.8 0 0-1.2.4-1.9.4-.3 0-.8-.1-1.2-.2-4.6-1.5-4.7-1.8-5.7-4.1 0 0-8.3-19.9-17.8-46.4H335c-9.7 25.4-18.3 46.6-18.3 46.6-1.1 2.4-1.1 2.4-8.3 4.7v1.2h19v-.9c-6.7-2.3-6.7-2.8-6.1-4.1.2-.4 5.8-14 5.8-14.3h16.1c1.5 3.3 6.4 14.5 6.4 14.5.7 1.5.7 1.5-6.3 3.8v1.1h41.3v-1.1c-8.3-2.4-8.3-2.3-8.3-4.8V20.5c0-.5.2-.6.8.1l38.7 37.6h4.8V12c0-2.4 0-2.5 8.3-5V5.8h-21.5zm-78.3 28.1l6.8-17.2c2.2 7 3.9 12.3 5.9 17.2h-12.7zM469.9 55.4c-8.1-6.5-10.3-11.3-20.7-21.6-.4-.4-1-.5-1 .1v18.2c0 2.6.1 2.6 8.5 5v1.1h-25.9V57c8.3-2.2 8.3-2.3 8.3-4.9V11.7c0-2.4 0-2.4-8.3-4.9V5.7h25.9l-.1 1.1c-8.5 2.5-8.5 2.5-8.5 5v17c0 .1.5.3.9-.2l18.5-18.4c1.5-1.5 1.5-1.5-3.8-3.6v-1h20v1.1c-7.3 2-7.3 2.1-10.2 4.9l-17.3 17.1c10.8 8.9 20.5 25.8 33.2 29.3v1c-1.9.7-11.9 2.4-19.5-3.6z"/><g><path d="M498.8 52.6c.8.8 1.2 1.9 1.2 3 0 1.2-.4 2.2-1.3 3-.8.8-1.9 1.3-3.1 1.3-1.1 0-2.2-.5-3-1.3-.8-.8-1.3-1.9-1.3-3s.5-2.2 1.3-3.1c.8-.8 1.8-1.2 3-1.2 1.3.1 2.3.5 3.2 1.3zm-.4.4c-.7-.7-1.7-1.1-2.7-1.1-1 0-1.9.4-2.6 1.1-.7.7-1.1 1.7-1.1 2.7 0 1 .4 1.9 1.1 2.7.7.7 1.7 1.1 2.7 1.1 1 0 2-.4 2.7-1.1.7-.7 1.1-1.6 1.1-2.6-.1-1.1-.5-2.1-1.2-2.8zm-.5 1.5c0 .7-.4 1.2-1.2 1.3l1.1 2.3h-.9l-1-2.1h-1.1v2.1h-.8v-4.9h1.8c1.4 0 2.1.4 2.1 1.3zm-3.1-.8v1.7h.9c.9 0 1.3-.2 1.3-.8 0-.6-.4-.9-1.4-.9h-.8z"/></g></svg>